<svg xmlns="http://www.w3.org/2000/svg" version="1.1" xmlns:xlink="http://www.w3.org/1999/xlink" xmlns:svgjs="http://svgjs.dev/svgjs" width="2000" height="2049" viewBox="0 0 2000 2049"><g transform="matrix(1,0,0,1,-1.7883636068004307,0.8295546558704245)"><svg viewBox="0 0 241 247" data-background-color="#ffffff" preserveAspectRatio="xMidYMid meet" height="2049" width="2000" xmlns="http://www.w3.org/2000/svg" xmlns:xlink="http://www.w3.org/1999/xlink"><g id="tight-bounds" transform="matrix(1,0,0,1,0.21549781461945372,-0.09999999999999432)"><svg viewBox="0 0 240.5690043707611 247.2" height="247.2" width="240.5690043707611"><g><svg viewBox="0 0 240.5690043707611 247.2" height="247.2" width="240.5690043707611"><g><svg viewBox="0 0 240.5690043707611 247.2" height="247.2" width="240.5690043707611"><g id="textblocktransform"><svg viewBox="0 0 240.5690043707611 247.2" height="247.2" width="240.5690043707611" id="textblock"><g><svg viewBox="0 0 240.5690043707611 247.2" height="247.2" width="240.5690043707611"><rect width="240.5690043707611" height="247.2" x="0" y="0" opacity="1" fill="#ff0000" data-fill-palette-color="tertiary"></rect><g transform="matrix(1,0,0,1,23.607599999999998,23.607599999999998)"><svg width="193.3538043707611" viewBox="2.369999885559082 -32.400001525878906 31.31999969482422 32.400001525878906" height="199.9848" data-palette-color="#ffffff"><path d="M27.22 0L22.88 0 22.88-12.13 8.86-12.13 2.37-18.63 2.37-25.93 8.86-32.4 12.52-32.4 12.52-20.9 27.42-20.9 33.69-14.4 33.69-6.47 27.22 0ZM22.88-26.56L14.23-26.56 14.23-32.4 27.2-32.4 32.81-26.76 32.81-23.32 22.88-23.32 22.88-26.56ZM2.37-6.47L2.37-9.72 13.16-9.72 13.16-5.86 21.17-5.86 21.17 0 7.81 0 2.37-6.47Z" opacity="1" transform="matrix(1,0,0,1,0,0)" fill="#ffffff" class="undefined-text-0" data-fill-palette-color="quaternary" id="text-0"></path></svg></g></svg></g></svg></g></svg></g><g></g></svg></g><defs></defs></svg><rect width="240.5690043707611" height="247.2" fill="none" stroke="none" visibility="hidden"></rect></g></svg></g></svg>